<svg id="Layer_1" xmlns="http://www.w3.org/2000/svg" viewBox="-150.8 320.4 268.9 118.2"><style>.st0{fill:#393A96;} .st1{fill:#B4AFD7;} .st2{fill:#6762AC;} .st3{fill:#8D87C0;} .st4{fill:#F89B6C;} .st5{fill:#4D4B92;}</style><path class="st0" d="M-77 401c-.7.3-1.4.6-2.1.8-.7.2-1.4.4-2.2.4-.7.1-1.5.1-2.3.1-1.4 0-2.7-.2-3.9-.6-1.1-.4-2.1-.9-3-1.7-.8-.7-1.5-1.6-1.9-2.6s-.6-2.1-.6-3.3c0-1.4.3-2.5.7-3.6.5-1 1.2-1.9 2.1-2.5.9-.7 1.9-1.2 3-1.5 1.1-.3 2.3-.5 3.6-.5 1.9 0 4 .4 6.4 1.2v4.2c-.8-.5-1.6-.9-2.4-1.2-.8-.3-1.8-.5-2.8-.5s-1.9.2-2.7.5c-.8.4-1.5.9-2 1.6-.5.7-.8 1.5-.8 2.4 0 .8.2 1.5.7 2.2.5.7 1.1 1.2 1.9 1.6s1.7.6 2.7.6c.8 0 1.6-.1 2.3-.3.7-.2 1.3-.4 1.8-.6s1-.5 1.5-.8v4.1zM42.4 390.2h-6.1v11.9h-5v-11.9h-6.1v-3.8h17.2v3.8zM58.4 395.8h-6.9v6.4h-5v-15.8h11.9v3.2h-6.9v3.1h6.9v3.1zM39.1 347.4c3.9 0 7-3.1 7-7s-3.1-7-7-7-7 3.1-7 7c0 3.8 3.1 7 7 7zm10.8 29.3l-4.4-14.2 1.4-6.2 8.3-7.5 5.6-11.7 4.7-7.3-7.8 2.8-7.7 11.8-4.4 3.3-7.5 3.3-.5.3.2-.3-11.6-7.7-4.8-14.3-4.7-1.2L22 347l9.6 9.2-.1.1 1.4 6.2-3.2 10.1"/><path class="st1" d="M.4 343.7c3.9 0 7-3.1 7-7s-3.1-7-7-7-7 3.1-7 7 3.1 7 7 7zm9.7 25.8l-3.3-10.6 1.4-6.2 9.1-9.3 7.4-17.4-6.2 3-5.5 10.8-12.2 7.7-.5.3.2-.3-11.5-7.7-5-15.7-4.7-1.2 5.3 20.4 8.3 9.2-.1.1 1.4 6.2-3.3 10.3"/><path class="st2" d="M-38.3 343.7c3.9 0 7-3.1 7-7s-3.1-7-7-7-7 3.1-7 7 3.1 7 7 7zm9.7 25.7l-3.2-10.6 1.4-6.2 7.6-7.8 8.2-24.4-6.2 3-6.4 16.2-10.8 7.8-.5.3.2-.3-12.2-7.7-8.8-10.7-4.7-1.2 9.2 15.6 9 9.2-.1.1 1.4 6.2-3.8 11.8"/><path class="st3" d="M-76.4 347.4c3.9 0 7-3.1 7-7s-3.1-7-7-7-7 3.1-7 7c0 3.8 3.2 7 7 7zm9.9 26.2l-3.4-11.2 1.4-6.2 8.6-9 4.6-21.3-6.2 3-3.2 15.3-10.1 6.9-.5.3.2-.3-8.2-3.3-6-3.3-7-12.4-7.2-3.1 3.1 6.1 6.9 13.1 9.6 8.1-.1.1 1.4 6.2-5.3 16.6"/><path class="st4" d="M-71.4 347.9s-10.6-2.5-16.9 1.2c-6.3 3.7-16.1 6.6-16.1 6.6l.2.6-4.5 1.4.2 1.3 4.6-1.4.2.9-4.1 1.3.2 1.3 4.2-1.3.2.8-3.9 1.2.2 1.3 4-1.2.3 1.1-3.6 1.1.2 1.3 3.7-1.1v.1s11-3.3 13.7-6.2c2.7-2.9 15-8.8 16.2-7.6l1-2.7zM-17.7 366.8c-49.4.1-89.4 11-89.4 24.4 0 4.3 4.2 8.4 11.5 11.9-4.1-2.7-6.4-5.7-6.5-8.8 0-12.8 38.2-23.3 85.5-23.4 47.2-.1 85.5 10.3 85.6 23.1 0 1.5-.6 3-1.6 4.5 2.9-2.4 4.4-4.9 4.4-7.6 0-13.3-40.1-24.1-89.5-24.1z"/><path class="st0" d="M-55.4 402.1h-5.1l-1.4-3.2h-7.2l-1.4 3.2h-5.1l7.4-15.8h5.5l7.3 15.8zm-7.6-5.9l-2.4-5.7-2.5 5.7h4.9zM1.2 402.1h-5v-15.8h5v15.8zM22.9 386.4l-7.5 16h-3.3l-7.4-16h5.2l3.8 9.1 3.9-9.1h5.3zM-100.1 414.2c-.4-.4-1-.7-1.8-.7-1.6 0-2.8 1.1-2.8 2.7s1.2 2.7 2.7 2.7c.8 0 1.5-.3 2-.9l1.7 1.2c-.8 1-2.1 1.5-3.4 1.5-3 0-5.1-1.7-5.1-4.4s2.2-4.4 5.1-4.4c1.1 0 2.4.3 3.2 1.2l-1.6 1.1zM-96.4 411.7c.6 0 1.2.5 1.2 1s-.5 1-1.2 1c-.6 0-1.2-.5-1.2-1s.6-1 1.2-1zm-1 2.9h2v5.8h-2v-5.8zM-89.4 416h-1.8v1.9c0 .6.1 1.1 1 1.1.2 0 .6 0 .8-.2v1.5c-.4.1-.9.2-1.4.2-1.3 0-2.4-.5-2.4-1.8V416h-1.3v-1.4h1.3v-1.7h2v1.7h1.8v1.4zM-84.7 421.3c-.5 1.2-.8 1.9-2.8 1.9-.5 0-1-.1-1.5-.2l.3-1.5c.3.1.6.2.9.2.9 0 1.1-.3 1.3-1l.1-.3-2.9-5.8h2.2l1.7 3.8 1.4-3.8h2.1l-2.8 6.7zM-76.3 416h-1.3v-1.4h1.3v-1c0-1.3.4-2.3 2.6-2.3.4 0 .8 0 1.2.1l-.1 1.5c-.2-.1-.4-.1-.7-.1-.6 0-1 .2-1 .9v.9h1.5v1.4h-1.5v4.4h-2V416zM-68.6 414.5c2 0 3.6 1.2 3.6 3s-1.6 3-3.6 3-3.6-1.2-3.6-3c-.1-1.8 1.6-3 3.6-3zm0 4.5c1 0 1.6-.6 1.6-1.5s-.6-1.5-1.6-1.5-1.6.6-1.6 1.5.6 1.5 1.6 1.5zM-63.8 414.6h2v.9c.4-.7 1-1.1 1.9-1.1.2 0 .5 0 .7.1v1.6c-.3-.1-.6-.1-.9-.1-1.5 0-1.7.8-1.7 1.9v2.4h-2v-5.7zM-51 412h1.7l4.1 8.4h-2.4l-.8-1.8H-52l-.8 1.8h-2.3l4.1-8.4zm.8 2.4l-1.2 2.6h2.3l-1.1-2.6zM-44.4 411.4h2v9h-2v-9zM-40.9 411.4h2v9h-2v-9zM-34.2 412h2.3l1.5 5.4 2-5.4h1.9l2 5.6 1.6-5.6h2.1l-2.8 8.4h-1.9l-2.1-5.8-2.1 5.8h-1.8l-2.7-8.4zM-16.6 414.5c2 0 3.6 1.2 3.6 3s-1.6 3-3.6 3-3.6-1.2-3.6-3c-.1-1.8 1.5-3 3.6-3zm0 4.5c1 0 1.6-.6 1.6-1.5s-.6-1.5-1.6-1.5-1.6.6-1.6 1.5c-.1.9.6 1.5 1.6 1.5zM-11.8 414.6h1.9v.8c.3-.5.9-.9 1.9-.9.9 0 1.7.3 2 1 .5-.7 1.1-1 2.1-1 1.8 0 2.3 1.1 2.3 2.5v3.4h-2V417c0-.5-.2-1-.9-1-.9 0-1.2.6-1.2 1.3v3.1h-2v-3.1c0-.4 0-1.3-.9-1.3-1 0-1.2.7-1.2 1.5v2.9h-2v-5.8zM6 419.4c-.6.7-1.7 1.1-2.8 1.1-2 0-3.6-1.2-3.6-3s1.6-3 3.6-3c1.9 0 3.1 1.2 3.1 3v.6H1.6c.2.7.7 1.1 1.5 1.1.7 0 1.1-.3 1.4-.7l1.5.9zm-1.7-2.5c0-.6-.5-1.1-1.2-1.1-.9 0-1.4.5-1.4 1.1h2.6zM7.6 414.6h1.9v.8c.3-.5.9-.9 1.9-.9 2 0 2.4 1.2 2.4 2.7v3.2h-2v-2.8c0-.7 0-1.5-1-1.5s-1.2.7-1.2 1.5v2.9h-2v-5.9zM19.5 412h2.1v8.4h-2.1V412zM23.2 414.6h1.9v.8c.3-.5.9-.9 1.9-.9 2 0 2.4 1.2 2.4 2.7v3.2h-2v-2.8c0-.7 0-1.5-1-1.5s-1.2.7-1.2 1.5v2.9h-2v-5.9zM30.8 412.8c0 .6.5 1 1.2 1 .6 0 1.2-.5 1.2-1s-.5-1-1.2-1c-.7-.1-1.2.4-1.2 1zm.2 7.6h2v-5.8h-2v5.8zM38.9 416h-1.8v1.9c0 .6.1 1.1 1 1.1.2 0 .6 0 .8-.2v1.5c-.4.1-.9.2-1.4.2-1.3 0-2.4-.5-2.4-1.8V416h-1.3v-1.4h1.3v-1.7h2v1.7h1.8v1.4zM40.9 411.7c.6 0 1.2.5 1.2 1s-.5 1-1.2 1c-.6 0-1.2-.5-1.2-1s.6-1 1.2-1zm-1 2.9h2v5.8h-2v-5.8zM47.5 419.7c-.5.6-1.3.9-2.1.9-1.2 0-2.3-.6-2.3-1.8 0-2 2.7-2 4.4-2 0-.6-.6-1-1.3-1s-1.2.3-1.6.7l-1.1-1c.7-.6 1.8-.9 2.9-.9 2.3 0 3 1.1 3 3v2.9h-1.9v-.8zm-.5-1.8c-.6 0-2 0-2 .8 0 .4.5.6 1 .6.8 0 1.5-.4 1.5-1.1v-.4H47v.1zM55.1 416h-1.8v1.9c0 .6.1 1.1 1 1.1.2 0 .6 0 .8-.2v1.5c-.4.1-.9.2-1.4.2-1.3 0-2.4-.5-2.4-1.8V416H50v-1.4h1.3v-1.7h2v1.7h1.8v1.4zM57.1 411.7c.6 0 1.2.5 1.2 1s-.5 1-1.2 1c-.6 0-1.2-.5-1.2-1s.6-1 1.2-1zm-1 2.9h2v5.8h-2v-5.8zM58.9 414.6h2.2l1.7 3.9 1.5-3.9h2l-2.6 5.8h-2.1l-2.7-5.8zM73.2 419.4c-.6.7-1.7 1.1-2.8 1.1-2 0-3.6-1.2-3.6-3s1.6-3 3.6-3c1.9 0 3.1 1.2 3.1 3v.6h-4.7c.2.7.7 1.1 1.5 1.1.7 0 1.1-.3 1.4-.7l1.5.9zm-1.7-2.5c0-.6-.5-1.1-1.2-1.1-.9 0-1.4.5-1.4 1.1h2.6zM-150.8 427.5h2.1v8.4h-2.1v-8.4zM-147 430.1h1.9v.8c.3-.5.9-.9 1.9-.9 2 0 2.4 1.2 2.4 2.7v3.2h-2v-2.8c0-.7 0-1.5-1-1.5s-1.2.7-1.2 1.5v2.9h-2v-5.9zM-138.3 427.2c.6 0 1.2.5 1.2 1 0 .6-.5 1-1.2 1-.6 0-1.2-.5-1.2-1 .1-.5.6-1 1.2-1zm-1 2.9h2v5.8h-2v-5.8zM-131.4 431.5h-1.8v1.9c0 .6.1 1.1 1 1.1.2 0 .6 0 .8-.2v1.5c-.4.1-.9.2-1.4.2-1.3 0-2.4-.5-2.4-1.8v-2.8h-1.3V430h1.3v-1.7h2v1.7h1.8v1.5zM-129.3 427.2c.6 0 1.2.5 1.2 1 0 .6-.5 1-1.2 1-.6 0-1.2-.5-1.2-1s.6-1 1.2-1zm-1 2.9h2v5.8h-2v-5.8zM-122.7 435.2c-.5.6-1.3.9-2.1.9-1.2 0-2.3-.6-2.3-1.8 0-2 2.7-2 4.4-2 0-.6-.6-1-1.3-1-.7 0-1.2.3-1.6.7l-1.1-1c.7-.6 1.8-.9 2.9-.9 2.4 0 3 1.1 3 3v2.9h-1.9v-.8zm-.5-1.8c-.6 0-2 0-2 .8 0 .4.5.6 1 .6.8 0 1.5-.4 1.5-1.1v-.4h-.5v.1zM-115.2 431.5h-1.8v1.9c0 .6.1 1.1 1 1.1.2 0 .6 0 .8-.2v1.5c-.4.1-.9.2-1.4.2-1.3 0-2.4-.5-2.4-1.8v-2.8h-1.3V430h1.3v-1.7h2v1.7h1.8v1.5zM-113.1 427.2c.6 0 1.2.5 1.2 1 0 .6-.5 1-1.2 1-.6 0-1.2-.5-1.2-1s.5-1 1.2-1zm-1 2.9h2v5.8h-2v-5.8zM-111.4 430.1h2.2l1.7 3.9 1.5-3.9h2l-2.6 5.8h-2.1l-2.7-5.8zM-97 434.9c-.6.7-1.7 1.1-2.8 1.1-2 0-3.6-1.2-3.6-3s1.6-3 3.6-3c1.9 0 3.1 1.2 3.1 3v.6h-4.7c.2.7.7 1.1 1.5 1.1.7 0 1.1-.3 1.4-.7l1.5.9zm-1.7-2.5c0-.6-.5-1.1-1.2-1.1-.9 0-1.4.5-1.4 1.1h2.6zM-94.2 430c.7 0 1.2.5 1.2 1.1s-.6 1.1-1.2 1.1c-.7 0-1.2-.5-1.2-1.1-.1-.6.5-1.1 1.2-1.1zm0 3.8c.7 0 1.2.5 1.2 1.1s-.6 1.1-1.2 1.1c-.7 0-1.2-.5-1.2-1.1-.1-.6.5-1.1 1.2-1.1zM-81.3 435.9h-1.9v-.8c-.3.5-.9.9-1.9.9-2 0-2.4-1.2-2.4-2.7v-3.2h2v2.8c0 .7 0 1.5 1 1.5s1.2-.7 1.2-1.5V430h2v5.9zM-79.8 430.1h1.9v.8c.3-.5.9-.9 1.9-.9 2 0 2.4 1.2 2.4 2.7v3.2h-2v-2.8c0-.7 0-1.5-1-1.5s-1.2.7-1.2 1.5v2.9h-2v-5.9zM-65.9 434.9c-.6.7-1.7 1.1-2.8 1.1-2 0-3.6-1.2-3.6-3s1.6-3 3.6-3c1.9 0 3.1 1.2 3.1 3v.6h-4.7c.2.7.7 1.1 1.5 1.1.7 0 1.1-.3 1.4-.7l1.5.9zm-1.7-2.5c0-.6-.5-1.1-1.2-1.1-.9 0-1.4.5-1.4 1.1h2.6zM-61.1 430.1h2.2l1.7 3.9 1.5-3.9h2l-2.6 5.8h-2.1l-2.7-5.8zM-51.9 427.2c.6 0 1.2.5 1.2 1 0 .6-.5 1-1.2 1-.6 0-1.2-.5-1.2-1s.5-1 1.2-1zm-1 2.9h2v5.8h-2v-5.8zM-49.4 426.9h2v9h-2v-9zM-46 426.9h2v9h-2v-9zM-36.3 434.9c-.6.7-1.7 1.1-2.8 1.1-2 0-3.6-1.2-3.6-3s1.6-3 3.6-3c1.9 0 3.1 1.2 3.1 3v.6h-4.7c.2.7.7 1.1 1.5 1.1.7 0 1.1-.3 1.4-.7l1.5.9zm-1.7-2.5c0-.6-.5-1.1-1.2-1.1-.9 0-1.4.5-1.4 1.1h2.6zM-30.6 430.1h1.9v.8c.3-.4 1.1-.9 2-.9 1.9 0 3.2 1.2 3.2 3 0 1.6-1.1 3.1-3 3.1-.8 0-1.6-.2-2.1-.8v3.3h-2v-8.5zm3.5 4.4c1 0 1.6-.6 1.6-1.5s-.6-1.5-1.6-1.5-1.6.6-1.6 1.5c-.1.9.5 1.5 1.6 1.5zM-19 430c2 0 3.6 1.2 3.6 3s-1.6 3-3.6 3-3.6-1.2-3.6-3 1.6-3 3.6-3zm0 4.5c1 0 1.6-.6 1.6-1.5s-.6-1.5-1.6-1.5-1.6.6-1.6 1.5.6 1.5 1.6 1.5zM-7.9 435.9h-1.9v-.8c-.3.5-.9.9-1.9.9-2 0-2.4-1.2-2.4-2.7v-3.2h2v2.8c0 .7 0 1.5 1 1.5s1.2-.7 1.2-1.5V430h2v5.9zM-6.4 430.1h2v.9c.4-.7 1-1.1 1.9-1.1.2 0 .5 0 .7.1v1.6c-.3-.1-.6-.1-.9-.1-1.5 0-1.7.8-1.7 1.9v2.4h-2v-5.7zM7.5 431.5H5.7v1.9c0 .6.1 1.1 1 1.1.2 0 .6 0 .8-.2v1.5c-.4.1-.9.2-1.4.2-1.3 0-2.4-.5-2.4-1.8v-2.8H2.4V430h1.3v-1.7h2v1.7h1.8v1.5zM11.9 430c2 0 3.6 1.2 3.6 3s-1.6 3-3.6 3-3.6-1.2-3.6-3c-.1-1.8 1.5-3 3.6-3zm0 4.5c1 0 1.6-.6 1.6-1.5s-.6-1.5-1.6-1.5-1.6.6-1.6 1.5.6 1.5 1.6 1.5zM23 435.9h-2v-.8c-.3.5-.9.9-1.9.9-2 0-2.4-1.2-2.4-2.7v-3.2h2v2.8c0 .7 0 1.5 1 1.5s1.2-.7 1.2-1.5V430h2l.1 5.9zM28.8 431.5H27v1.9c0 .6.1 1.1 1 1.1.2 0 .6 0 .8-.2v1.5c-.4.1-.9.2-1.4.2-1.3 0-2.4-.5-2.4-1.8v-2.8h-1.3V430H25v-1.7h2v1.7h1.8v1.5zM36 434.9c-.6.7-1.7 1.1-2.8 1.1-2 0-3.6-1.2-3.6-3s1.6-3 3.6-3c1.9 0 3.1 1.2 3.1 3v.6h-4.7c.2.7.7 1.1 1.5 1.1.7 0 1.1-.3 1.4-.7l1.5.9zm-1.7-2.5c0-.6-.5-1.1-1.2-1.1-.9 0-1.4.5-1.4 1.1h2.6zM41.3 431.8c-.3-.3-.7-.5-1.2-.5-.3 0-.7.1-.7.5 0 .9 3.4.1 3.4 2.3 0 1.5-1.6 1.9-3 1.9-.9 0-1.9-.2-2.6-.8l1.2-1.2c.4.4.8.6 1.4.6.5 0 .9-.1.9-.4 0-.9-3.4-.1-3.4-2.3 0-1.4 1.4-2 2.7-2 .9 0 1.8.2 2.4.8l-1.1 1.1zM47.8 426.9h2v9h-2v-9zM57.4 434.9c-.6.7-1.7 1.1-2.8 1.1-2 0-3.6-1.2-3.6-3s1.6-3 3.6-3c1.9 0 3.1 1.2 3.1 3v.6H53c.2.7.7 1.1 1.5 1.1.7 0 1.1-.3 1.4-.7l1.5.9zm-1.7-2.5c0-.6-.5-1.1-1.2-1.1-.9 0-1.4.5-1.4 1.1h2.6zM62.7 431.8c-.3-.3-.7-.5-1.2-.5-.3 0-.7.1-.7.5 0 .9 3.4.1 3.4 2.3 0 1.5-1.6 1.9-3 1.9-.9 0-1.9-.2-2.6-.8l1.2-1.2c.4.4.8.6 1.4.6.5 0 .9-.1.9-.4 0-.9-3.4-.1-3.4-2.3 0-1.4 1.4-2 2.7-2 .9 0 1.8.2 2.4.8l-1.1 1.1zM69.9 431.5h-1.3v-1.4h1.3v-1c0-1.3.4-2.3 2.6-2.3.4 0 .8 0 1.2.1l-.1 1.5c-.2-.1-.4-.1-.7-.1-.6 0-1 .2-1 .9v.9h1.5v1.4h-1.5v4.4h-2v-4.4zM80.3 434.9c-.6.7-1.7 1.1-2.8 1.1-2 0-3.6-1.2-3.6-3s1.6-3 3.6-3c1.9 0 3.1 1.2 3.1 3v.6h-4.7c.2.7.7 1.1 1.5 1.1.7 0 1.1-.3 1.4-.7l1.5.9zm-1.7-2.5c0-.6-.5-1.1-1.2-1.1-.9 0-1.4.5-1.4 1.1h2.6zM81.8 430.1h1.9v.8c.3-.5.9-.9 1.9-.9.9 0 1.7.3 2 1 .5-.7 1.1-1 2.1-1 1.8 0 2.3 1.1 2.3 2.5v3.4h-2v-3.4c0-.5-.2-1-.9-1-.9 0-1.2.6-1.2 1.3v3.1h-2v-3.1c0-.4 0-1.3-.9-1.3-1 0-1.2.7-1.2 1.5v2.9h-2v-5.8zM93.5 430.1h1.9v.8c.3-.5.9-.9 1.9-.9.9 0 1.7.3 2 1 .5-.7 1.1-1 2.1-1 1.8 0 2.3 1.1 2.3 2.5v3.4h-2v-3.4c0-.5-.2-1-.9-1-.9 0-1.2.6-1.2 1.3v3.1h-2v-3.1c0-.4 0-1.3-.9-1.3-1 0-1.2.7-1.2 1.5v2.9h-2v-5.8zM111.4 434.9c-.6.7-1.7 1.1-2.8 1.1-2 0-3.6-1.2-3.6-3s1.6-3 3.6-3c1.9 0 3.1 1.2 3.1 3v.6H107c.2.7.7 1.1 1.5 1.1.7 0 1.1-.3 1.4-.7l1.5.9zm-1.7-2.5c0-.6-.5-1.1-1.2-1.1-.9 0-1.4.5-1.4 1.1h2.6zM116.6 431.8c-.3-.3-.7-.5-1.2-.5-.3 0-.7.1-.7.5 0 .9 3.4.1 3.4 2.3 0 1.5-1.6 1.9-3 1.9-.9 0-1.9-.2-2.6-.8l1.2-1.2c.4.4.8.6 1.4.6.5 0 .9-.1.9-.4 0-.9-3.4-.1-3.4-2.3 0-1.4 1.4-2 2.7-2 .9 0 1.8.2 2.4.8l-1.1 1.1z"/><g><path class="st5" d="M-100.1 414.2c-.4-.4-1-.7-1.8-.7-1.6 0-2.8 1.1-2.8 2.7s1.2 2.7 2.7 2.7c.8 0 1.5-.3 2-.9l1.7 1.2c-.8 1-2.1 1.5-3.4 1.5-3 0-5.1-1.7-5.1-4.4s2.2-4.4 5.1-4.4c1.1 0 2.4.3 3.2 1.2l-1.6 1.1zM-96.4 411.7c.6 0 1.2.5 1.2 1s-.5 1-1.2 1c-.6 0-1.2-.5-1.2-1s.6-1 1.2-1zm-1 2.9h2v5.8h-2v-5.8zM-89.4 416h-1.8v1.9c0 .6.1 1.1 1 1.1.2 0 .6 0 .8-.2v1.5c-.4.1-.9.2-1.4.2-1.3 0-2.4-.5-2.4-1.8V416h-1.3v-1.4h1.3v-1.7h2v1.7h1.8v1.4zM-84.7 421.3c-.5 1.2-.8 1.9-2.8 1.9-.5 0-1-.1-1.5-.2l.3-1.5c.3.1.6.2.9.2.9 0 1.1-.3 1.3-1l.1-.3-2.9-5.8h2.2l1.7 3.8 1.4-3.8h2.1l-2.8 6.7zM-76.3 416h-1.3v-1.4h1.3v-1c0-1.3.4-2.3 2.6-2.3.4 0 .8 0 1.2.1l-.1 1.5c-.2-.1-.4-.1-.7-.1-.6 0-1 .2-1 .9v.9h1.5v1.4h-1.5v4.4h-2V416zM-68.6 414.5c2 0 3.6 1.2 3.6 3s-1.6 3-3.6 3-3.6-1.2-3.6-3c-.1-1.8 1.6-3 3.6-3zm0 4.5c1 0 1.6-.6 1.6-1.5s-.6-1.5-1.6-1.5-1.6.6-1.6 1.5.6 1.5 1.6 1.5zM-63.8 414.6h2v.9c.4-.7 1-1.1 1.9-1.1.2 0 .5 0 .7.1v1.6c-.3-.1-.6-.1-.9-.1-1.5 0-1.7.8-1.7 1.9v2.4h-2v-5.7zM-51 412h1.7l4.1 8.4h-2.4l-.8-1.8H-52l-.8 1.8h-2.3l4.1-8.4zm.8 2.4l-1.2 2.6h2.3l-1.1-2.6zM-44.4 411.4h2v9h-2v-9zM-40.9 411.4h2v9h-2v-9zM-34.2 412h2.3l1.5 5.4 2-5.4h1.9l2 5.6 1.6-5.6h2.1l-2.8 8.4h-1.9l-2.1-5.8-2.1 5.8h-1.8l-2.7-8.4zM-16.6 414.5c2 0 3.6 1.2 3.6 3s-1.6 3-3.6 3-3.6-1.2-3.6-3c-.1-1.8 1.5-3 3.6-3zm0 4.5c1 0 1.6-.6 1.6-1.5s-.6-1.5-1.6-1.5-1.6.6-1.6 1.5c-.1.9.6 1.5 1.6 1.5zM-11.8 414.6h1.9v.8c.3-.5.9-.9 1.9-.9.9 0 1.7.3 2 1 .5-.7 1.1-1 2.1-1 1.8 0 2.3 1.1 2.3 2.5v3.4h-2V417c0-.5-.2-1-.9-1-.9 0-1.2.6-1.2 1.3v3.1h-2v-3.1c0-.4 0-1.3-.9-1.3-1 0-1.2.7-1.2 1.5v2.9h-2v-5.8zM6 419.4c-.6.7-1.7 1.1-2.8 1.1-2 0-3.6-1.2-3.6-3s1.6-3 3.6-3c1.9 0 3.1 1.2 3.1 3v.6H1.6c.2.7.7 1.1 1.5 1.1.7 0 1.1-.3 1.4-.7l1.5.9zm-1.7-2.5c0-.6-.5-1.1-1.2-1.1-.9 0-1.4.5-1.4 1.1h2.6zM7.6 414.6h1.9v.8c.3-.5.9-.9 1.9-.9 2 0 2.4 1.2 2.4 2.7v3.2h-2v-2.8c0-.7 0-1.5-1-1.5s-1.2.7-1.2 1.5v2.9h-2v-5.9zM19.5 412h2.1v8.4h-2.1V412zM23.2 414.6h1.9v.8c.3-.5.9-.9 1.9-.9 2 0 2.4 1.2 2.4 2.7v3.2h-2v-2.8c0-.7 0-1.5-1-1.5s-1.2.7-1.2 1.5v2.9h-2v-5.9zM30.8 412.8c0 .6.5 1 1.2 1 .6 0 1.2-.5 1.2-1s-.5-1-1.2-1c-.7-.1-1.2.4-1.2 1zm.2 7.6h2v-5.8h-2v5.8zM38.9 416h-1.8v1.9c0 .6.1 1.1 1 1.1.2 0 .6 0 .8-.2v1.5c-.4.1-.9.2-1.4.2-1.3 0-2.4-.5-2.4-1.8V416h-1.3v-1.4h1.3v-1.7h2v1.7h1.8v1.4zM40.9 411.7c.6 0 1.2.5 1.2 1s-.5 1-1.2 1c-.6 0-1.2-.5-1.2-1s.6-1 1.2-1zm-1 2.9h2v5.8h-2v-5.8zM47.5 419.7c-.5.6-1.3.9-2.1.9-1.2 0-2.3-.6-2.3-1.8 0-2 2.7-2 4.4-2 0-.6-.6-1-1.3-1s-1.2.3-1.6.7l-1.1-1c.7-.6 1.8-.9 2.9-.9 2.3 0 3 1.1 3 3v2.9h-1.9v-.8zm-.5-1.8c-.6 0-2 0-2 .8 0 .4.5.6 1 .6.8 0 1.5-.4 1.5-1.1v-.4H47v.1zM55.1 416h-1.8v1.9c0 .6.1 1.1 1 1.1.2 0 .6 0 .8-.2v1.5c-.4.1-.9.2-1.4.2-1.3 0-2.4-.5-2.4-1.8V416H50v-1.4h1.3v-1.7h2v1.7h1.8v1.4zM57.1 411.7c.6 0 1.2.5 1.2 1s-.5 1-1.2 1c-.6 0-1.2-.5-1.2-1s.6-1 1.2-1zm-1 2.9h2v5.8h-2v-5.8zM58.9 414.6h2.2l1.7 3.9 1.5-3.9h2l-2.6 5.8h-2.1l-2.7-5.8zM73.2 419.4c-.6.7-1.7 1.1-2.8 1.1-2 0-3.6-1.2-3.6-3s1.6-3 3.6-3c1.9 0 3.1 1.2 3.1 3v.6h-4.7c.2.7.7 1.1 1.5 1.1.7 0 1.1-.3 1.4-.7l1.5.9zm-1.7-2.5c0-.6-.5-1.1-1.2-1.1-.9 0-1.4.5-1.4 1.1h2.6zM-150.8 427.5h2.1v8.4h-2.1v-8.4zM-147 430.1h1.9v.8c.3-.5.9-.9 1.9-.9 2 0 2.4 1.2 2.4 2.7v3.2h-2v-2.8c0-.7 0-1.5-1-1.5s-1.2.7-1.2 1.5v2.9h-2v-5.9zM-138.3 427.2c.6 0 1.2.5 1.2 1 0 .6-.5 1-1.2 1-.6 0-1.2-.5-1.2-1 .1-.5.6-1 1.2-1zm-1 2.9h2v5.8h-2v-5.8zM-131.4 431.5h-1.8v1.9c0 .6.1 1.1 1 1.1.2 0 .6 0 .8-.2v1.5c-.4.1-.9.2-1.4.2-1.3 0-2.4-.5-2.4-1.8v-2.8h-1.3V430h1.3v-1.7h2v1.7h1.8v1.5zM-129.3 427.2c.6 0 1.2.5 1.2 1 0 .6-.5 1-1.2 1-.6 0-1.2-.5-1.2-1s.6-1 1.2-1zm-1 2.9h2v5.8h-2v-5.8zM-122.7 435.2c-.5.6-1.3.9-2.1.9-1.2 0-2.3-.6-2.3-1.8 0-2 2.7-2 4.4-2 0-.6-.6-1-1.3-1-.7 0-1.2.3-1.6.7l-1.1-1c.7-.6 1.8-.9 2.9-.9 2.4 0 3 1.1 3 3v2.9h-1.9v-.8zm-.5-1.8c-.6 0-2 0-2 .8 0 .4.5.6 1 .6.8 0 1.5-.4 1.5-1.1v-.4h-.5v.1zM-115.2 431.5h-1.8v1.9c0 .6.1 1.1 1 1.1.2 0 .6 0 .8-.2v1.5c-.4.1-.9.2-1.4.2-1.3 0-2.4-.5-2.4-1.8v-2.8h-1.3V430h1.3v-1.7h2v1.7h1.8v1.5zM-113.1 427.2c.6 0 1.2.5 1.2 1 0 .6-.5 1-1.2 1-.6 0-1.2-.5-1.2-1s.5-1 1.2-1zm-1 2.9h2v5.8h-2v-5.8zM-111.4 430.1h2.2l1.7 3.9 1.5-3.9h2l-2.6 5.8h-2.1l-2.7-5.8zM-97 434.9c-.6.7-1.7 1.1-2.8 1.1-2 0-3.6-1.2-3.6-3s1.6-3 3.6-3c1.9 0 3.1 1.2 3.1 3v.6h-4.7c.2.7.7 1.1 1.5 1.1.7 0 1.1-.3 1.4-.7l1.5.9zm-1.7-2.5c0-.6-.5-1.1-1.2-1.1-.9 0-1.4.5-1.4 1.1h2.6zM-94.2 430c.7 0 1.2.5 1.2 1.1s-.6 1.1-1.2 1.1c-.7 0-1.2-.5-1.2-1.1-.1-.6.5-1.1 1.2-1.1zm0 3.8c.7 0 1.2.5 1.2 1.1s-.6 1.1-1.2 1.1c-.7 0-1.2-.5-1.2-1.1-.1-.6.5-1.1 1.2-1.1zM-81.3 435.9h-1.9v-.8c-.3.5-.9.9-1.9.9-2 0-2.4-1.2-2.4-2.7v-3.2h2v2.8c0 .7 0 1.5 1 1.5s1.2-.7 1.2-1.5V430h2v5.9zM-79.8 430.1h1.9v.8c.3-.5.9-.9 1.9-.9 2 0 2.4 1.2 2.4 2.7v3.2h-2v-2.8c0-.7 0-1.5-1-1.5s-1.2.7-1.2 1.5v2.9h-2v-5.9zM-65.9 434.9c-.6.7-1.7 1.1-2.8 1.1-2 0-3.6-1.2-3.6-3s1.6-3 3.6-3c1.9 0 3.1 1.2 3.1 3v.6h-4.7c.2.7.7 1.1 1.5 1.1.7 0 1.1-.3 1.4-.7l1.5.9zm-1.7-2.5c0-.6-.5-1.1-1.2-1.1-.9 0-1.4.5-1.4 1.1h2.6zM-61.1 430.1h2.2l1.7 3.9 1.5-3.9h2l-2.6 5.8h-2.1l-2.7-5.8zM-51.9 427.2c.6 0 1.2.5 1.2 1 0 .6-.5 1-1.2 1-.6 0-1.2-.5-1.2-1s.5-1 1.2-1zm-1 2.9h2v5.8h-2v-5.8zM-49.4 426.9h2v9h-2v-9zM-46 426.9h2v9h-2v-9zM-36.3 434.9c-.6.7-1.7 1.1-2.8 1.1-2 0-3.6-1.2-3.6-3s1.6-3 3.6-3c1.9 0 3.1 1.2 3.1 3v.6h-4.7c.2.7.7 1.1 1.5 1.1.7 0 1.1-.3 1.4-.7l1.5.9zm-1.7-2.5c0-.6-.5-1.1-1.2-1.1-.9 0-1.4.5-1.4 1.1h2.6zM-30.6 430.1h1.9v.8c.3-.4 1.1-.9 2-.9 1.9 0 3.2 1.2 3.2 3 0 1.6-1.1 3.1-3 3.1-.8 0-1.6-.2-2.1-.8v3.3h-2v-8.5zm3.5 4.4c1 0 1.6-.6 1.6-1.5s-.6-1.5-1.6-1.5-1.6.6-1.6 1.5c-.1.9.5 1.5 1.6 1.5zM-19 430c2 0 3.6 1.2 3.6 3s-1.6 3-3.6 3-3.6-1.2-3.6-3 1.6-3 3.6-3zm0 4.5c1 0 1.6-.6 1.6-1.5s-.6-1.5-1.6-1.5-1.6.6-1.6 1.5.6 1.5 1.6 1.5zM-7.9 435.9h-1.9v-.8c-.3.5-.9.9-1.9.9-2 0-2.4-1.2-2.4-2.7v-3.2h2v2.8c0 .7 0 1.5 1 1.5s1.2-.7 1.2-1.5V430h2v5.9zM-6.4 430.1h2v.9c.4-.7 1-1.1 1.9-1.1.2 0 .5 0 .7.1v1.6c-.3-.1-.6-.1-.9-.1-1.5 0-1.7.8-1.7 1.9v2.4h-2v-5.7zM7.5 431.5H5.7v1.9c0 .6.1 1.1 1 1.1.2 0 .6 0 .8-.2v1.5c-.4.1-.9.2-1.4.2-1.3 0-2.4-.5-2.4-1.8v-2.8H2.4V430h1.3v-1.7h2v1.7h1.8v1.5zM11.9 430c2 0 3.6 1.2 3.6 3s-1.6 3-3.6 3-3.6-1.2-3.6-3c-.1-1.8 1.5-3 3.6-3zm0 4.5c1 0 1.6-.6 1.6-1.5s-.6-1.5-1.6-1.5-1.6.6-1.6 1.5.6 1.5 1.6 1.5zM23 435.9h-2v-.8c-.3.5-.9.9-1.9.9-2 0-2.4-1.2-2.4-2.7v-3.2h2v2.8c0 .7 0 1.5 1 1.5s1.2-.7 1.2-1.5V430h2l.1 5.9zM28.8 431.5H27v1.9c0 .6.1 1.1 1 1.1.2 0 .6 0 .8-.2v1.5c-.4.1-.9.2-1.4.2-1.3 0-2.4-.5-2.4-1.8v-2.8h-1.3V430H25v-1.7h2v1.7h1.8v1.5zM36 434.9c-.6.7-1.7 1.1-2.8 1.1-2 0-3.6-1.2-3.6-3s1.6-3 3.6-3c1.9 0 3.1 1.2 3.1 3v.6h-4.7c.2.7.7 1.1 1.5 1.1.7 0 1.1-.3 1.4-.7l1.5.9zm-1.7-2.5c0-.6-.5-1.1-1.2-1.1-.9 0-1.4.5-1.4 1.1h2.6zM41.3 431.8c-.3-.3-.7-.5-1.2-.5-.3 0-.7.1-.7.5 0 .9 3.4.1 3.4 2.3 0 1.5-1.6 1.9-3 1.9-.9 0-1.9-.2-2.6-.8l1.2-1.2c.4.4.8.6 1.4.6.5 0 .9-.1.9-.4 0-.9-3.4-.1-3.4-2.3 0-1.4 1.4-2 2.7-2 .9 0 1.8.2 2.4.8l-1.1 1.1zM47.8 426.9h2v9h-2v-9zM57.4 434.9c-.6.7-1.7 1.1-2.8 1.1-2 0-3.6-1.2-3.6-3s1.6-3 3.6-3c1.9 0 3.1 1.2 3.1 3v.6H53c.2.7.7 1.1 1.5 1.1.7 0 1.1-.3 1.4-.7l1.5.9zm-1.7-2.5c0-.6-.5-1.1-1.2-1.1-.9 0-1.4.5-1.4 1.1h2.6zM62.7 431.8c-.3-.3-.7-.5-1.2-.5-.3 0-.7.1-.7.5 0 .9 3.4.1 3.4 2.3 0 1.5-1.6 1.9-3 1.9-.9 0-1.9-.2-2.6-.8l1.2-1.2c.4.4.8.6 1.4.6.5 0 .9-.1.9-.4 0-.9-3.4-.1-3.4-2.3 0-1.4 1.4-2 2.7-2 .9 0 1.8.2 2.4.8l-1.1 1.1zM69.9 431.5h-1.3v-1.4h1.3v-1c0-1.3.4-2.3 2.6-2.3.4 0 .8 0 1.2.1l-.1 1.5c-.2-.1-.4-.1-.7-.1-.6 0-1 .2-1 .9v.9h1.5v1.4h-1.5v4.4h-2v-4.4zM80.3 434.9c-.6.7-1.7 1.1-2.8 1.1-2 0-3.6-1.2-3.6-3s1.6-3 3.6-3c1.9 0 3.1 1.2 3.1 3v.6h-4.7c.2.7.7 1.1 1.5 1.1.7 0 1.1-.3 1.4-.7l1.5.9zm-1.7-2.5c0-.6-.5-1.1-1.2-1.1-.9 0-1.4.5-1.4 1.1h2.6zM81.8 430.1h1.9v.8c.3-.5.9-.9 1.9-.9.9 0 1.7.3 2 1 .5-.7 1.1-1 2.1-1 1.8 0 2.3 1.1 2.3 2.5v3.4h-2v-3.4c0-.5-.2-1-.9-1-.9 0-1.2.6-1.2 1.3v3.1h-2v-3.1c0-.4 0-1.3-.9-1.3-1 0-1.2.7-1.2 1.5v2.9h-2v-5.8zM93.5 430.1h1.9v.8c.3-.5.9-.9 1.9-.9.9 0 1.7.3 2 1 .5-.7 1.1-1 2.1-1 1.8 0 2.3 1.1 2.3 2.5v3.4h-2v-3.4c0-.5-.2-1-.9-1-.9 0-1.2.6-1.2 1.3v3.1h-2v-3.1c0-.4 0-1.3-.9-1.3-1 0-1.2.7-1.2 1.5v2.9h-2v-5.8zM111.4 434.9c-.6.7-1.7 1.1-2.8 1.1-2 0-3.6-1.2-3.6-3s1.6-3 3.6-3c1.9 0 3.1 1.2 3.1 3v.6H107c.2.7.7 1.1 1.5 1.1.7 0 1.1-.3 1.4-.7l1.5.9zm-1.7-2.5c0-.6-.5-1.1-1.2-1.1-.9 0-1.4.5-1.4 1.1h2.6zM116.6 431.8c-.3-.3-.7-.5-1.2-.5-.3 0-.7.1-.7.5 0 .9 3.4.1 3.4 2.3 0 1.5-1.6 1.9-3 1.9-.9 0-1.9-.2-2.6-.8l1.2-1.2c.4.4.8.6 1.4.6.5 0 .9-.1.9-.4 0-.9-3.4-.1-3.4-2.3 0-1.4 1.4-2 2.7-2 .9 0 1.8.2 2.4.8l-1.1 1.1z"/></g><path class="st0" d="M-27.6 386.4l-7.2 16h-2.9l-4.3-9.3-4.4 9.3h-2.9l-7.1-16h5.2l3.5 8.8 4-8.8h3.6l3.9 8.8 3.6-8.8h5zM-20.3 402.1h-5v-15.8h5v15.8z"/><path class="st4" d="M-8.1 394.2c0 .7-.2 1.3-.5 1.9-.4.6-.8 1-1.5 1.4-.6.3-1.3.5-2 .5s-1.4-.2-2-.5c-.6-.3-1.1-.8-1.5-1.4s-.5-1.2-.5-1.9.2-1.3.5-1.9c.4-.6.8-1 1.5-1.4.6-.3 1.3-.5 2-.5s1.4.2 2 .5c.6.3 1.1.8 1.5 1.4.4.6.5 1.3.5 1.9z"/></svg>