<svg xmlns="http://www.w3.org/2000/svg" viewBox="0 0 492.9793 69.0322"><path d="M89.85 21.183c-.902.506-1.94.759-3.112.759-.998 0-1.896-.195-2.696-.583-.799-.389-1.481-.935-2.046-1.64s-1-1.54-1.309-2.507c-.307-.968-.462-2.039-.462-3.212 0-1.159.155-2.226.462-3.201.308-.975.745-1.815 1.31-2.52s1.246-1.25 2.045-1.638c.8-.389 1.698-.583 2.696-.583 1.26 0 2.316.246 3.168.737.85.491 1.54 1.206 2.067 2.145l-2.045 1.276c-.396-.63-.829-1.096-1.298-1.397-.47-.301-1.1-.451-1.892-.451-1.35 0-2.376.506-3.08 1.518S82.6 12.269 82.6 14c0 1.73.352 3.102 1.056 4.114.705 1.012 1.731 1.518 3.08 1.518.807 0 1.475-.161 2.003-.484s.99-.8 1.385-1.43l1.914 1.276c-.557.953-1.286 1.683-2.189 2.189zm11.034.517v-1.144a5.18 5.18 0 0 1-1.408.99 3.977 3.977 0 0 1-1.76.396c-.47 0-.943-.07-1.42-.21a3.663 3.663 0 0 1-1.286-.67 3.47 3.47 0 0 1-.935-1.21c-.242-.499-.363-1.1-.363-1.804 0-.646.117-1.203.352-1.673.234-.469.557-.857.968-1.166.41-.307.894-.535 1.452-.681a7.169 7.169 0 0 1 1.826-.22c1.056 0 1.913.147 2.574.44v-.858c0-.63-.187-1.115-.561-1.452-.374-.337-.913-.506-1.617-.506-.602 0-1.14.059-1.617.176s-.943.3-1.397.55l-.88-1.716a7.105 7.105 0 0 1 1.781-.77c.63-.176 1.357-.264 2.179-.264 1.29 0 2.335.319 3.134.957s1.2 1.61 1.2 2.915v7.92h-2.222zm0-4.928a4.22 4.22 0 0 0-1.09-.374c-.417-.088-.934-.132-1.55-.132-.734 0-1.313.154-1.738.462a1.467 1.467 0 0 0-.639 1.254c0 .572.184 1.034.55 1.386.367.352.925.528 1.673.528.616 0 1.169-.154 1.66-.462.492-.309.87-.645 1.134-1.012v-1.65zm12.055 4.928v-6.52c0-1.17-.209-1.99-.627-2.458s-1-.702-1.749-.702c-.762 0-1.35.256-1.76.768-.41.512-.616 1.237-.616 2.173V21.7h-2.266V10.164h2.266v1.1c.294-.43.7-.763 1.222-1a4.005 4.005 0 0 1 1.682-.356c1.35 0 2.373.432 3.07 1.298.696.865 1.044 2.156 1.044 3.872V21.7h-2.266zm11.704 0v-1.144a5.18 5.18 0 0 1-1.408.99 3.977 3.977 0 0 1-1.76.396c-.47 0-.943-.07-1.419-.21a3.663 3.663 0 0 1-1.287-.67 3.47 3.47 0 0 1-.935-1.21c-.242-.499-.363-1.1-.363-1.804 0-.646.117-1.203.352-1.673.235-.469.557-.857.968-1.166.41-.307.894-.535 1.452-.681a7.169 7.169 0 0 1 1.826-.22c1.056 0 1.914.147 2.574.44v-.858c0-.63-.187-1.115-.561-1.452-.374-.337-.913-.506-1.617-.506-.601 0-1.14.059-1.617.176s-.942.3-1.397.55l-.88-1.716a7.105 7.105 0 0 1 1.782-.77c.63-.176 1.356-.264 2.178-.264 1.29 0 2.335.319 3.135.957s1.199 1.61 1.199 2.915v7.92h-2.222zm0-4.928a4.22 4.22 0 0 0-1.089-.374c-.418-.088-.935-.132-1.551-.132-.734 0-1.313.154-1.738.462a1.467 1.467 0 0 0-.638 1.254c0 .572.183 1.034.55 1.386.366.352.924.528 1.672.528.616 0 1.17-.154 1.661-.462.491-.309.869-.645 1.133-1.012v-1.65zm11.99 4.914v-1.1a6.83 6.83 0 0 1-1.365.967c-.484.259-1.033.389-1.65.389a4.336 4.336 0 0 1-1.737-.352 3.704 3.704 0 0 1-1.42-1.1c-.403-.499-.718-1.14-.946-1.925s-.34-1.727-.34-2.827c0-.983.124-1.84.374-2.574.249-.733.583-1.342 1-1.826a3.956 3.956 0 0 1 1.453-1.078 4.36 4.36 0 0 1 1.727-.352 3.53 3.53 0 0 1 1.65.4c.513.267.93.578 1.254.934V6.83l2.266-1.17v16.025h-2.266zm.022-8.157a3.975 3.975 0 0 0-.484-.525 4.304 4.304 0 0 0-.639-.481 3.845 3.845 0 0 0-.758-.36 2.492 2.492 0 0 0-.826-.143c-.82 0-1.444.303-1.87.908s-.637 1.52-.637 2.745c0 1.459.223 2.516.67 3.172.448.657 1.09.985 1.925.985.543 0 1.042-.15 1.496-.448a4.572 4.572 0 0 0 1.123-1.018v-4.835zm7.832-6.327c0 .396-.143.736-.43 1.023-.285.286-.626.429-1.022.429-.411 0-.76-.143-1.045-.43a1.398 1.398 0 0 1-.43-1.022c0-.41.144-.76.43-1.045.286-.286.634-.43 1.044-.43.397 0 .738.144 1.024.43.286.286.429.635.429 1.045zM141.89 21.7V10.15h2.265V21.7h-2.265zm11.902 0v-1.144a5.18 5.18 0 0 1-1.408.99 3.977 3.977 0 0 1-1.76.396c-.47 0-.943-.07-1.42-.21a3.663 3.663 0 0 1-1.286-.67 3.47 3.47 0 0 1-.935-1.21c-.242-.499-.363-1.1-.363-1.804 0-.646.117-1.203.352-1.673.234-.469.557-.857.968-1.166.41-.307.894-.535 1.452-.681a7.169 7.169 0 0 1 1.826-.22c1.056 0 1.914.147 2.574.44v-.858c0-.63-.187-1.115-.561-1.452-.374-.337-.913-.506-1.617-.506-.602 0-1.14.059-1.617.176s-.943.3-1.397.55l-.88-1.716a7.105 7.105 0 0 1 1.782-.77c.63-.176 1.356-.264 2.178-.264 1.29 0 2.335.319 3.135.957s1.199 1.61 1.199 2.915v7.92h-2.222zm0-4.928a4.22 4.22 0 0 0-1.09-.374c-.417-.088-.934-.132-1.55-.132-.734 0-1.313.154-1.738.462a1.467 1.467 0 0 0-.638 1.254c0 .572.183 1.034.55 1.386.366.352.924.528 1.672.528.616 0 1.17-.154 1.66-.462.492-.309.87-.645 1.134-1.012v-1.65zm12.056 4.928v-6.52c0-1.17-.21-1.99-.627-2.458-.419-.468-1.002-.702-1.75-.702-.762 0-1.35.256-1.76.768-.41.512-.616 1.237-.616 2.173V21.7h-2.266V10.164h2.266v1.1c.294-.43.7-.763 1.222-1A4.005 4.005 0 0 1 164 9.908c1.35 0 2.372.432 3.07 1.298.696.865 1.044 2.156 1.044 3.872V21.7h-2.265zm21.076 0l-1.299-3.652h-6.16L178.19 21.7h-2.398l5.544-15.4h2.441l5.611 15.4h-2.463zm-3.235-9.262c-.088-.279-.19-.587-.308-.924s-.231-.675-.34-1.012c-.111-.337-.214-.65-.31-.935a14.16 14.16 0 0 1-.208-.671c-.044.161-.11.385-.198.67a383.739 383.739 0 0 1-.605 1.948c-.11.352-.217.667-.32.945l-1.23 3.52h4.751l-1.232-3.541zm16.06 6.094c0 .645-.122 1.184-.366 1.617s-.567.78-.967 1.045c-.4.264-.86.454-1.382.572a7.47 7.47 0 0 1-1.64.176 7.03 7.03 0 0 1-2.366-.418 8.097 8.097 0 0 1-2.056-1.056l1.034-1.717a6.365 6.365 0 0 0 1.682.859c.58.19 1.141.285 1.683.285 1.408 0 2.112-.424 2.112-1.276 0-.44-.238-.792-.714-1.056-.477-.263-1.133-.557-1.97-.88-.615-.234-1.14-.472-1.572-.714s-.786-.503-1.056-.782a2.453 2.453 0 0 1-.583-.934 3.697 3.697 0 0 1-.177-1.2c0-.513.095-.967.283-1.363.19-.396.458-.726.807-.99s.764-.462 1.245-.595a5.988 5.988 0 0 1 1.581-.197c.733 0 1.441.117 2.123.352.683.235 1.28.542 1.793.923l-.99 1.739a5.368 5.368 0 0 0-1.43-.748 4.914 4.914 0 0 0-1.561-.242c-.558 0-.961.099-1.21.296a.926.926 0 0 0-.374.76c0 .146.029.283.088.407.059.125.17.253.332.385.163.132.38.267.654.407.273.14.632.297 1.075.473.65.25 1.219.487 1.706.714.487.228.898.485 1.23.77.333.287.58.62.743 1.001.162.382.243.844.243 1.387zm10.318 0c0 .645-.122 1.184-.366 1.617s-.566.78-.967 1.045c-.4.264-.86.454-1.382.572a7.47 7.47 0 0 1-1.64.176 7.03 7.03 0 0 1-2.365-.418 8.097 8.097 0 0 1-2.057-1.056l1.034-1.717a6.365 6.365 0 0 0 1.683.859c.579.19 1.14.285 1.682.285 1.409 0 2.113-.424 2.113-1.276 0-.44-.239-.792-.715-1.056-.477-.263-1.133-.557-1.969-.88-.616-.234-1.14-.472-1.573-.714s-.785-.503-1.056-.782a2.453 2.453 0 0 1-.583-.934 3.697 3.697 0 0 1-.177-1.2c0-.513.095-.967.284-1.363.19-.396.458-.726.806-.99s.764-.462 1.245-.595a5.988 5.988 0 0 1 1.581-.197c.734 0 1.442.117 2.123.352.683.235 1.28.542 1.793.923l-.989 1.739a5.368 5.368 0 0 0-1.43-.748 4.914 4.914 0 0 0-1.562-.242c-.558 0-.961.099-1.21.296a.926.926 0 0 0-.374.76c0 .146.03.283.089.407.058.125.169.253.332.385.162.132.38.267.653.407.274.14.632.297 1.075.473.65.25 1.22.487 1.706.714.488.228.898.485 1.23.77.333.287.58.62.743 1.001.162.382.243.844.243 1.387zm11.946-2.662c0 .953-.132 1.807-.395 2.563-.264.756-.63 1.393-1.098 1.914a4.691 4.691 0 0 1-1.646 1.188 5.157 5.157 0 0 1-2.064.407 4.723 4.723 0 0 1-2.02-.43 4.706 4.706 0 0 1-1.602-1.22c-.454-.528-.81-1.159-1.065-1.892s-.384-1.555-.384-2.464c0-.939.132-1.782.395-2.53.263-.748.626-1.383 1.086-1.903s1.002-.917 1.625-1.188c.623-.272 1.3-.407 2.03-.407a4.884 4.884 0 0 1 3.679 1.628c.46.513.819 1.14 1.075 1.88.256.742.385 1.56.385 2.454zm-2.266.066c0-1.189-.262-2.13-.784-2.827s-1.248-1.046-2.175-1.046c-.87 0-1.55.349-2.043 1.046s-.74 1.616-.74 2.76c0 1.276.265 2.248.795 2.915.53.668 1.23 1.001 2.098 1.001.427 0 .817-.102 1.17-.308.354-.205.655-.48.905-.824.251-.345.443-.752.576-1.221.131-.47.198-.968.198-1.496zm11.88-2.464c-.47-.484-.928-.84-1.375-1.067s-.928-.341-1.442-.341c-.836 0-1.496.34-1.98 1.023-.484.682-.726 1.617-.726 2.805 0 .572.059 1.096.177 1.573.117.476.293.887.527 1.232s.525.612.87.802c.344.191.744.287 1.199.287.542 0 1-.122 1.375-.363.374-.242.788-.598 1.243-1.068l1.452 1.43c-.22.294-.463.57-.727.826-.263.257-.56.484-.89.681-.33.198-.701.356-1.112.473a5.14 5.14 0 0 1-1.408.177 4.56 4.56 0 0 1-1.968-.43 4.645 4.645 0 0 1-1.577-1.21c-.443-.52-.792-1.147-1.046-1.88s-.38-1.555-.38-2.465c0-.953.13-1.804.392-2.552.26-.748.617-1.382 1.068-1.902s.983-.917 1.598-1.188 1.276-.408 1.98-.408c.85 0 1.609.165 2.276.495.668.33 1.272.818 1.815 1.463l-1.341 1.607zm6.512-6.27c0 .396-.143.736-.43 1.023s-.626.429-1.023.429c-.41 0-.758-.143-1.045-.43s-.428-.626-.428-1.022c0-.41.142-.76.428-1.045s.635-.43 1.045-.43c.397 0 .738.144 1.024.43s.428.635.428 1.045zM235.543 21.7V10.15h2.265V21.7h-2.265zm11.902 0v-1.144a5.16 5.16 0 0 1-1.408.99 3.973 3.973 0 0 1-1.76.396c-.47 0-.942-.07-1.419-.21a3.664 3.664 0 0 1-1.287-.67 3.452 3.452 0 0 1-.935-1.21c-.242-.499-.363-1.1-.363-1.804 0-.646.117-1.203.352-1.673a3.25 3.25 0 0 1 .969-1.166c.41-.307.894-.535 1.45-.681a7.172 7.172 0 0 1 1.827-.22c1.057 0 1.914.147 2.574.44v-.858c0-.63-.186-1.115-.56-1.452-.374-.337-.913-.506-1.618-.506-.601 0-1.14.059-1.617.176s-.942.3-1.397.55l-.88-1.716a7.116 7.116 0 0 1 1.782-.77c.631-.176 1.356-.264 2.178-.264 1.29 0 2.336.319 3.135.957.8.638 1.199 1.61 1.199 2.915v7.92h-2.222zm0-4.928a4.213 4.213 0 0 0-1.089-.374c-.418-.088-.935-.132-1.55-.132-.734 0-1.314.154-1.739.462a1.467 1.467 0 0 0-.638 1.254c0 .572.183 1.034.55 1.386.366.352.924.528 1.672.528.616 0 1.17-.154 1.661-.462s.87-.645 1.133-1.012v-1.65zm10.56 4.642c-.28.161-.606.29-.98.385a5.037 5.037 0 0 1-1.243.143c-.807 0-1.44-.25-1.902-.748s-.694-1.269-.694-2.31v-6.666h-1.65V10.15h1.65v-3.3l2.222-1.188v4.488h2.86v2.068h-2.86v6.27c0 .542.092.91.275 1.1s.488.286.914.286c.293 0 .593-.048.902-.144a3.87 3.87 0 0 0 .77-.318l-.264 2.002zm5.61-14.212c0 .396-.144.736-.43 1.023s-.627.429-1.023.429c-.41 0-.759-.143-1.045-.43s-.429-.626-.429-1.022c0-.41.143-.76.43-1.045s.634-.43 1.044-.43c.397 0 .737.144 1.023.43s.43.635.43 1.045zM261.018 21.7V10.15h2.266V21.7h-2.266zm15.005-5.83c0 .953-.133 1.807-.395 2.563-.264.756-.63 1.393-1.098 1.914a4.691 4.691 0 0 1-1.647 1.188 5.157 5.157 0 0 1-2.063.407 4.723 4.723 0 0 1-2.02-.43 4.706 4.706 0 0 1-1.602-1.22c-.454-.528-.81-1.159-1.065-1.892s-.384-1.555-.384-2.464c0-.939.132-1.782.394-2.53.264-.748.626-1.383 1.087-1.903s1.002-.917 1.625-1.188c.622-.272 1.299-.407 2.03-.407a4.88 4.88 0 0 1 3.678 1.628c.461.513.82 1.14 1.075 1.88.256.742.385 1.56.385 2.454zm-2.266.066c0-1.189-.262-2.13-.785-2.827s-1.248-1.046-2.174-1.046c-.87 0-1.55.349-2.043 1.046s-.74 1.616-.74 2.76c0 1.276.265 2.248.794 2.915.53.668 1.23 1.001 2.099 1.001.427 0 .816-.102 1.17-.308.353-.205.655-.48.905-.824.251-.345.442-.752.575-1.221.132-.47.199-.968.199-1.496zm11.66 5.764v-6.52c0-1.17-.21-1.99-.627-2.458-.42-.468-1.002-.702-1.75-.702-.763 0-1.349.256-1.76.768-.41.512-.615 1.237-.615 2.173V21.7h-2.267V10.164h2.267v1.1c.293-.43.7-.763 1.22-1a4.007 4.007 0 0 1 1.683-.356c1.35 0 2.372.432 3.07 1.298.696.865 1.044 2.156 1.044 3.872V21.7h-2.265zM300.09 7.708c-.381 0-.653.08-.814.242-.162.161-.242.454-.242.88v1.32h2.134v2.112h-2.134V21.7h-2.266v-9.438h-1.496V10.15h1.496V8.632c0-.528.076-.976.23-1.342a2.47 2.47 0 0 1 .628-.902 2.38 2.38 0 0 1 .924-.506 4.08 4.08 0 0 1 1.144-.155c.293 0 .59.019.89.056s.576.091.826.165v1.98c-.5-.147-.938-.22-1.32-.22zm12.673 8.162c0 .953-.133 1.807-.396 2.563-.264.756-.63 1.393-1.098 1.914a4.691 4.691 0 0 1-1.646 1.188 5.157 5.157 0 0 1-2.064.407 4.723 4.723 0 0 1-2.02-.43 4.706 4.706 0 0 1-1.602-1.22c-.454-.528-.81-1.159-1.065-1.892s-.384-1.555-.384-2.464c0-.939.132-1.782.395-2.53.263-.748.626-1.383 1.086-1.903s1.002-.917 1.625-1.188c.623-.272 1.3-.407 2.03-.407a4.884 4.884 0 0 1 3.678 1.628c.461.513.82 1.14 1.076 1.88.256.742.385 1.56.385 2.454zm-2.267.066c0-1.189-.262-2.13-.784-2.827s-1.248-1.046-2.175-1.046c-.87 0-1.55.349-2.043 1.046s-.74 1.616-.74 2.76c0 1.276.265 2.248.795 2.915.53.668 1.23 1.001 2.098 1.001.427 0 .817-.102 1.17-.308.354-.205.655-.48.905-.824.251-.345.443-.752.576-1.221.132-.47.198-.968.198-1.496zm10.912-3.388a3.869 3.869 0 0 0-.77-.308 3.67 3.67 0 0 0-.968-.11c-.72 0-1.277.25-1.672.748-.397.498-.594 1.24-.594 2.222v6.6h-2.267V10.15h2.267v1.1c.264-.381.627-.7 1.089-.957a3.141 3.141 0 0 1 1.55-.385c.47 0 .855.04 1.156.12.3.081.567.202.803.364l-.594 2.156zM102.779 62.7V47.628H87.323V62.7h-5.04V29.1h5.04v13.584h15.456V29.1h5.04v33.6h-5.04zm12.576 0V29.1h5.04v33.6h-5.04zm27.456 0h-5.328l-11.664-33.6h5.472l7.008 21.408c.16.48.336 1.016.528 1.608a111.98 111.98 0 0 1 1.032 3.36c.144.496.247.888.312 1.176.064-.288.168-.68.312-1.176.144-.496.303-1.032.48-1.608.176-.576.36-1.168.552-1.776.192-.608.367-1.152.528-1.632l6.912-21.36h5.376l-11.52 33.6zm53.76-23.568c0 2.72-.657 4.896-1.97 6.528s-3.119 2.735-5.423 3.312l6.864 13.728h-5.808l-6.672-13.296h-7.585V62.7h-4.944V29.1h14.736c1.472 0 2.857.2 4.153.6a9.98 9.98 0 0 1 3.432 1.824c.991.816 1.776 1.856 2.352 3.12.576 1.264.864 2.76.864 4.488zm-5.089.144c0-1.76-.52-3.104-1.56-4.032-1.04-.928-2.424-1.392-4.153-1.392h-9.792v10.8h9.792c1.697 0 3.073-.44 4.13-1.32 1.055-.88 1.583-2.232 1.583-4.056zm29.904 10.32c0 .448-.017.872-.048 1.272-.032.4-.065.728-.096.984h-16.656c.128 1.216.384 2.256.767 3.12.385.864.865 1.576 1.44 2.136.577.56 1.217.976 1.92 1.248.704.272 1.441.408 2.209.408 1.055 0 2.023-.176 2.904-.528.88-.352 1.735-.848 2.567-1.488l2.93 3.168a12.436 12.436 0 0 1-3.745 2.448c-1.377.576-3.024.864-4.944.864-1.472 0-2.872-.288-4.2-.864s-2.489-1.423-3.48-2.544c-.992-1.12-1.776-2.496-2.353-4.128-.575-1.632-.863-3.488-.863-5.568 0-2.144.272-4.032.816-5.665.544-1.631 1.296-3 2.256-4.104s2.12-1.943 3.48-2.519c1.36-.576 2.856-.864 4.488-.864 1.791 0 3.352.336 4.68 1.007a9.516 9.516 0 0 1 3.312 2.737c.88 1.152 1.536 2.496 1.968 4.032.432 1.536.648 3.152.648 4.848zm-4.945-1.824a10.944 10.944 0 0 0-.455-2.448c-.24-.768-.6-1.44-1.08-2.016a5.132 5.132 0 0 0-1.8-1.368c-.72-.336-1.593-.504-2.616-.504-1.665 0-2.984.552-3.96 1.656-.977 1.104-1.577 2.664-1.8 4.68h11.711zm26.88 8.016c0 1.408-.266 2.584-.8 3.528s-1.236 1.703-2.108 2.28c-.873.576-1.878.992-3.017 1.248s-2.33.383-3.579.383c-1.727 0-3.448-.304-5.159-.911-1.713-.608-3.209-1.376-4.488-2.304l2.256-3.744c1.183.832 2.407 1.456 3.671 1.872 1.264.416 2.489.624 3.672.624 3.073 0 4.609-.928 4.609-2.785 0-.96-.52-1.727-1.56-2.303-1.04-.576-2.472-1.216-4.297-1.92-1.343-.512-2.488-1.032-3.431-1.56-.945-.528-1.712-1.096-2.304-1.704a5.38 5.38 0 0 1-1.272-2.04c-.257-.752-.384-1.624-.384-2.616 0-1.12.205-2.112.618-2.976a5.794 5.794 0 0 1 1.759-2.16c.76-.576 1.666-1.008 2.718-1.296s2.2-.432 3.449-.432c1.6 0 3.143.256 4.632.768 1.488.512 2.792 1.184 3.912 2.016l-2.16 3.792c-1.025-.736-2.064-1.28-3.12-1.632-1.056-.352-2.193-.528-3.409-.528s-2.096.216-2.64.648-.815.984-.815 1.656c0 .32.065.616.194.888.128.272.37.552.724.84.355.288.83.584 1.426.888.597.304 1.378.648 2.346 1.032 1.418.544 2.659 1.064 3.722 1.56s1.958 1.056 2.684 1.68 1.266 1.352 1.62 2.184c.353.832.531 1.84.531 3.024zm24.768-6.192c0 .448-.017.872-.048 1.272-.032.4-.065.728-.096.984H251.29c.128 1.216.384 2.256.767 3.12.385.864.865 1.576 1.44 2.136.577.56 1.217.976 1.92 1.248.704.272 1.441.408 2.209.408 1.055 0 2.023-.176 2.904-.528.88-.352 1.735-.848 2.567-1.488l2.93 3.168a12.436 12.436 0 0 1-3.745 2.448c-1.377.576-3.024.864-4.944.864-1.472 0-2.872-.288-4.2-.864s-2.489-1.423-3.48-2.544c-.992-1.12-1.776-2.496-2.352-4.128-.576-1.632-.864-3.488-.864-5.568 0-2.144.272-4.032.816-5.665.544-1.631 1.296-3 2.256-4.104s2.12-1.943 3.48-2.519c1.36-.576 2.856-.864 4.488-.864 1.791 0 3.352.336 4.68 1.007a9.516 9.516 0 0 1 3.312 2.737c.88 1.152 1.536 2.496 1.968 4.032.432 1.536.648 3.152.648 4.848zm-4.945-1.824a10.944 10.944 0 0 0-.455-2.448c-.24-.768-.6-1.44-1.08-2.016a5.132 5.132 0 0 0-1.8-1.368c-.72-.336-1.593-.504-2.616-.504-1.665 0-2.984.552-3.96 1.656-.977 1.104-1.577 2.664-1.8 4.68h11.711zM286.953 62.7v-2.496c-.863.864-1.889 1.584-3.071 2.16-1.185.576-2.465.864-3.841.864-1.025 0-2.056-.152-3.096-.456a7.978 7.978 0 0 1-2.808-1.464c-.833-.672-1.512-1.552-2.04-2.64s-.792-2.4-.792-3.936c0-1.408.256-2.623.768-3.648a7.101 7.101 0 0 1 2.112-2.544c.896-.672 1.952-1.168 3.168-1.488 1.216-.32 2.544-.48 3.985-.48 2.303 0 4.176.32 5.615.96V45.66c0-1.376-.407-2.432-1.224-3.168-.816-.736-1.992-1.104-3.528-1.104-1.312 0-2.488.128-3.527.384a12.602 12.602 0 0 0-3.049 1.2l-1.92-3.744a15.54 15.54 0 0 1 3.889-1.68c1.375-.384 2.959-.576 4.752-.576 2.815 0 5.095.696 6.84 2.088 1.743 1.392 2.616 3.512 2.616 6.36V62.7h-4.85zm0-10.752c-.672-.352-1.464-.624-2.376-.816s-2.04-.288-3.384-.288c-1.6 0-2.864.336-3.792 1.008-.929.672-1.391 1.584-1.391 2.736 0 1.248.399 2.256 1.199 3.024s2.016 1.152 3.648 1.152c1.344 0 2.552-.336 3.624-1.008 1.071-.673 1.896-1.408 2.472-2.208v-3.6zm24.191-9.216a8.447 8.447 0 0 0-1.68-.672c-.576-.16-1.28-.24-2.112-.24-1.568 0-2.784.544-3.648 1.632-.863 1.088-1.296 2.704-1.296 4.848v14.4h-4.943V37.5h4.943v2.4c.576-.832 1.368-1.528 2.376-2.089 1.008-.559 2.136-.84 3.384-.84 1.024 0 1.864.09 2.52.265.656.176 1.24.44 1.752.792l-1.296 4.704zm19.538 2.016c-1.026-1.056-2.025-1.832-3-2.328a6.844 6.844 0 0 0-3.145-.744c-1.824 0-3.264.744-4.32 2.232-1.056 1.488-1.584 3.528-1.584 6.12 0 1.248.128 2.393.385 3.432.255 1.04.64 1.936 1.15 2.688s1.145 1.336 1.897 1.752c.751.416 1.623.624 2.617.624 1.182 0 2.183-.264 3-.792.815-.528 1.72-1.304 2.712-2.328l3.168 3.12c-.481.64-1.01 1.24-1.584 1.8a10.591 10.591 0 0 1-1.945 1.488c-.72.432-1.528.776-2.424 1.032-.896.256-1.92.384-3.072.384-1.536 0-2.968-.312-4.294-.936a10.135 10.135 0 0 1-3.44-2.64c-.967-1.136-1.728-2.503-2.282-4.104-.555-1.6-.831-3.392-.831-5.376 0-2.08.285-3.936.855-5.568.57-1.632 1.347-3.016 2.33-4.152a9.803 9.803 0 0 1 3.487-2.592 10.593 10.593 0 0 1 4.32-.888c1.855 0 3.51.36 4.968 1.08 1.455.72 2.775 1.784 3.96 3.192l-2.928 3.504zM353.816 62.7V48.476c0-2.554-.456-4.342-1.368-5.363s-2.184-1.533-3.815-1.533c-1.665 0-2.946.559-3.841 1.676-.896 1.118-1.344 2.699-1.344 4.742V62.7h-4.943V30.3l4.943-2.593v12.224c.64-.938 1.528-1.665 2.664-2.183s2.36-.776 3.672-.776c2.944 0 5.176.944 6.696 2.832 1.52 1.888 2.28 4.704 2.28 8.447V62.7h-4.944z" fill="#68737A"/><g><path d="M31.2 63.93V3.868C14.647 3.867 1 17.515 1 34.067 1 50.616 14.648 63.93 31.2 63.93z" fill="#00539F"/><ellipse transform="rotate(-74.995 38.197 7.653)" cx="38.197" cy="7.653" rx="2.837" ry="2.837" fill="#68737A"/><ellipse transform="rotate(-44.992 50.389 14.67)" cx="50.385" cy="14.67" rx="2.837" ry="2.837" fill="#68737A"/><ellipse transform="rotate(-74.989 57.449 40.897)" cx="57.447" cy="40.898" rx="2.837" ry="2.837" fill="#68737A"/><ellipse transform="rotate(-15.006 57.442 26.843)" cx="57.43" cy="26.839" rx="2.837" ry="2.837" fill="#68737A"/><ellipse transform="rotate(-45.001 50.43 53.086)" cx="50.431" cy="53.085" rx="2.836" ry="2.836" fill="#68737A"/><ellipse transform="rotate(-14.999 38.261 60.13)" cx="38.26" cy="60.129" rx="2.837" ry="2.837" fill="#68737A"/><path fill="#FFFFFF" d="M31.1589 44.1097L31.1589 41.9473 17.438 27.1854 16.7172 31.2962z"/><path fill="#FFFFFF" d="M31.132 42.295L31.132 13.5978 27.6619 22.3532 30.1981 42.2409z"/><path fill="#FFFFFF" d="M26.9944 21.9529L22.3229 19.1508 25.1256 37.4362 26.0605 38.3704 26.9944 39.0379z"/><path fill="#00539F" d="M35.2696 21.9529L39.9412 19.1508 37.2717 37.1691 36.3381 38.2369 35.4042 38.9043z"/><path fill="#FFFFFF" d="M12.3121 36.6352L8.3886 37.9701 25.6599 48.6483 25.9273 48.3815 26.1941 48.1145z"/><path fill="#FFFFFF" d="M28.4625 45.8456L28.9965 45.3114 16.6641 32.0969 9.4825 29.6945 13.087 36.3419 27.9283 46.5131z"/><path fill="#00539F" d="M50.0338 36.6892L53.904 37.9701 32.3602 51.1839z"/><path fill="#00539F" d="M32.5746 47.2332L32.7069 45.8722 45.6288 32.0969 52.8077 29.6945 49.1788 36.3419 33.775 47.0467z"/><path fill="#00539F" d="M31.132 42.2409L32.2005 42.2409 34.6022 22.3532 31.132 13.5438z"/><path fill="#00539F" d="M31.1589 44.1097L31.1589 41.9473 44.8268 27.1854 45.4942 31.2157z"/><path fill="#FFFFFF" stroke="#FFFFFF" stroke-width="0.0861" stroke-miterlimit="3.8636" d="M32.227 44.831H44.053V51.719H32.227z"/><path fill="#00539F" stroke="#00539F" stroke-width="0.2813" d="M18.131 44.831H29.959V51.719H18.131z"/></g></svg>